<?xml version="1.0" encoding="utf-8"?>
<!-- Generator: Adobe Illustrator 19.0.0, SVG Export Plug-In . SVG Version: 6.00 Build 0)  -->
<svg version="1.1" id="Camada_1" xmlns="http://www.w3.org/2000/svg" xmlns:xlink="http://www.w3.org/1999/xlink" x="0px" y="0px"
	 viewBox="0 0 500 283" style="enable-background:new 0 0 500 283;" xml:space="preserve">
<style type="text/css">
	.st0{fill:#F47F21;}
	.st1{fill:#F4A21E;}
	.st2{fill:#F5D40E;}
	.st3{fill:#94B842;}
	.st4{fill:#93B740;}
</style>
<g id="XMLID_4_">
	<path id="XMLID_90_" class="st0" d="M287.4,95.4c14.7-25.5,52.6-30.4,75.1-9.7c2.4,2.2,4.1,3,7.5,1.7c7.8-3,16.4-0.5,21.4,6.1
		c2,2.6,3.8,3,6.9,2.7c18.6-2.2,34.2,3.9,45.7,18.6c11,14.1,14.1,30,7.9,47.3c-6,0.3-11.9-0.6-17.8-1.6c-16.3-2.7-32.1-7.3-47.6-13
		c-26.7-9.8-52.1-22.3-76.4-37.1C302.3,105.6,294.9,100.4,287.4,95.4z"/>
	<path id="XMLID_89_" class="st1" d="M287.4,95.4c7.5,5,15,10.2,22.7,14.9c24.2,14.9,49.7,27.3,76.4,37.1
		c15.5,5.7,31.3,10.3,47.6,13c5.9,1,11.8,1.9,17.8,1.6c-5,17.3-12.6,33.4-21.6,49c-1.4,2.5-2.9,2.9-5.5,1.9
		c-7.7-2.9-14.5-7.3-21.2-12c-18.9-13.5-36.2-28.9-51.1-46.6c-13.7-16.4-30.5-20.3-50.3-16.1c-10.1,2.1-19.5,6.2-29.3,11.3
		C275.9,130.3,278,111.9,287.4,95.4z"/>
	<path id="XMLID_88_" class="st0" d="M405.3,92.4c-0.1,0-1-0.1-1.7,0c-5.5,1-9.6,0.1-13.7-4.6c-4.9-5.7-12.3-6.4-19.4-3.6
		c-2.7,1.1-4.4,0.7-6.4-1.3c-3.4-3.5-7.5-6.3-12-8.3c-2.8-1.2-3-2.9-2.3-5.4c1.9-7.1,7.9-11.8,15.4-11.8c6,0,8.1-3.1,5.9-8.9
		c-5.4-14,0-28.4,12.9-34.8c12.5-6.1,26.3-2.2,33.4,9.8c6.3,10.6,7.5,22.4,6.9,34.4c-0.6,10.7-3.6,20.7-7.8,30.5
		C414,94.1,409.9,92.1,405.3,92.4z"/>
	<path id="XMLID_87_" class="st2" d="M350,231.4c17.4-0.3,34.1,6.1,50.3,13.7c2.4,1.1,2.3,2.2,0.6,3.9c-9,9.4-18.3,18.5-29.3,25.5
		c-11.6,7.4-21.4,6.2-31.3-3.3c-1.5-1.5-2.6-1.7-4.6-1c-7.3,2.4-13.5,0.5-18.3-5.4c-1.6-2-3-2.3-5.3-1.8
		c-10.4,2.2-19.5-1.7-24.8-10.2c-1.5-2.3-1.8-3.6,1.2-5.2C306.3,237.8,330,231.3,350,231.4z"/>
	<path id="XMLID_86_" class="st3" d="M177.3,176.2c2.4-3.2,3.9-5.4,5.6-7.5c2.7-3.3,5.9-6,10.1-7.4c12.5-3.9,20.5,2.6,18.7,15.6
		c-1.3,9.2-3.3,18.2-4.6,27.4c-0.6,4-2.7,8.7,3,11.5c1.8,0.9,0,8.1-2,9.1c-7.8,3.9-16.4-1-16.3-9.7c0.1-10.3,3.2-20.2,4.6-30.3
		c0.3-2.1,0.7-4.2,1.1-6.3c0.3-2.2,0.2-4.4-1.9-5.6c-2-1.1-4.1-0.7-6,0.6c-3.7,2.6-6.2,6.2-8.3,10.1c-5.8,10.7-8.8,22.4-10.5,34.4
		c-0.7,5.1-2.3,7.8-7.8,6.7c-1.3-0.2-2.6-0.2-3.9,0c-3.1,0.3-3.5-1.2-3-3.8c3.3-18.9,7.1-37.7,9.5-56.8c0.2-1.8,0.8-2.5,2.6-2.7
		c8.9-1.3,10.1-0.4,9.4,8.5C177.5,171.6,177.5,173.2,177.3,176.2z"/>
	<path id="XMLID_85_" class="st3" d="M133.3,215c-1.9,0.9-2.5,2.9-3.8,4.3c-3.8,4.3-8.5,6.4-14.1,6.7c-9.2,0.5-14.9-5.3-14.8-15.3
		c0.1-8.3,2.5-16.4,3.8-24.5c1.1-7.1,2.7-14.1,3.7-21.1c0.4-3,1.7-3.6,4.5-3.7c10.2-0.2,10.2-0.3,8.5,9.7
		c-1.9,10.9-3.8,21.8-5.5,32.7c-0.5,3.5-1.4,7.7,2.6,9.6c4.2,1.9,7.5-0.9,10-4.1c6.9-8.7,9-19.3,11.3-29.8c1-4.8,1.9-9.6,2.5-14.4
		c0.4-2.8,1.6-3.7,4.5-3.7c10.3-0.2,10.3-0.3,8.4,10c-2,11.5-4.1,23-6,34.6c-0.6,3.7-1.9,7.6,3.2,9.9c2.3,1.1-0.2,4.1-0.1,6.3
		c0.1,2-1.3,2.7-3,3.2C140.1,227.5,135.4,224.5,133.3,215z"/>
	<path id="XMLID_82_" class="st3" d="M294.6,184.3c-0.9,11.3-3.9,23.6-13.7,33.2c-7.9,7.7-17.3,10-27.9,7.7
		c-7.3-1.6-12.5-6.4-13.7-13.7c-2.7-17.2,1.4-32.7,14.8-44.6c7.4-6.6,16.6-7.9,26.1-5.6C289.5,163.6,294.6,171.3,294.6,184.3z
		 M280,186.2c0.1-8.5-2.1-12.9-6.6-14.2c-5.1-1.5-10.4,0.7-14,6.5c-5,8.1-7.1,17.1-6.5,26.6c0.3,4,1.7,7.8,6,9.3
		c4.4,1.5,8.3,0.2,11.7-2.9c1.8-1.7,3.2-3.7,4.2-5.9C278.2,199,279.6,192,280,186.2z"/>
	<path id="XMLID_81_" class="st3" d="M64.9,231.5c5.1,0.3,7.7-1.8,9.1-8.1c1.9-8.9,3.3-17.9,4.9-26.8c3-17.1,6.1-34.2,8.9-51.4
		c0.6-3.4,2.1-4,5.2-4c10.1,0.1,10.1,0,8.4,9.6c-4,23-8,46.1-12.1,69.1c-0.7,4.2-1.9,8.2-3.9,12c-4.5,8.2-12.5,12.1-21.7,10.4
		c-2.4-0.4-4.9-0.5-4.3-4.3C60.4,231.5,60.4,231.2,64.9,231.5z"/>
	<path id="XMLID_80_" class="st3" d="M315.1,177c2.4-3.5,4.4-6.6,6.7-9.5c3.5-4.4,8.1-6.9,13.8-7.1c2.6-0.1,4.2,0.5,3.2,3.6
		c-0.4,1.2-0.5,2.6-0.6,3.8c-0.2,4-1.3,6.2-6.3,5.9c-6.1-0.3-9.8,4.4-12.7,9.3c-5.5,9.6-7.8,20.3-9.8,30.9c-0.3,1.8-0.9,3.5-0.9,5.3
		c0,4.8-2.4,5.8-6.8,5.6c-8.1-0.3-8-0.1-6.7-8c3-17.3,6.7-34.4,8.5-51.9c0.2-2.4,0.9-3.4,3.5-3.5c9.7-0.6,9.6-0.7,8.4,8.9
		C315.2,172.3,313.5,174.2,315.1,177z"/>
	<path id="XMLID_79_" class="st3" d="M231.8,161.5c0.5,0,1,0.1,1.5,0c4.7-0.8,5.7,1.1,4.8,5.6c-2.4,11.8-4.3,23.6-6.3,35.5
		c-0.5,2.7-0.7,5.5-0.8,8.2c-0.1,1.4-0.2,3.3,1.4,3.9c5,1.8,2,5.3,1.8,8.1c-0.2,3.3-3.2,2.7-5.3,3c-9.2,1.3-14.2-4.1-12.7-13.9
		c1.7-11.2,3.9-22.4,5.8-33.6c0.6-3.2,1-6.4,1.7-9.6C225.2,160.2,223.7,161.7,231.8,161.5z"/>
	<path id="XMLID_78_" class="st3" d="M153.8,135.9c-5.9,7.5-11.4,13.3-17.8,18.2c-2.8,2.2-6.5,0.5-10.6,1c4.3-6.5,8.1-12.3,11.9-18
		c0.6-0.9,1.5-1.2,2.5-1.2C144,135.9,148.1,135.9,153.8,135.9z"/>
	<path id="XMLID_77_" class="st3" d="M243.7,141.7c0,5.5-4.4,9.9-9.8,10c-4.5,0.1-7.6-2.9-7.4-7.1c0.2-5.4,4.8-9.9,10-9.8
		C240.8,134.9,243.8,137.7,243.7,141.7z"/>
</g>
<path id="XMLID_7_" class="st4" d="M264.3,94.9c0-28.5-0.1-57,0.1-85.4c0-3.9-1.1-5.1-4.9-4.9c-5.5,0.3-11.1,0.2-16.6,0
	c-3-0.1-4,0.8-3.9,3.8c0.2,9.3,0.1,18.6,0.1,27.8c0,15.7-0.2,31.4,0.7,47.3c-0.8-0.7-1.3-1.5-1.7-2.3c-4.1-8.3-8.3-16.7-12.4-25
	L200.6,5h-29.9l0.1,15.2c0.1,28.6,0.1,57.2,0,85.8c0,1.4,0.7,3.2-0.8,4s-2.7-0.7-3.8-1.6c-1.7-1.5-3.5-3-4.9-4.7
	c-6.3-7.1-10.7-15.5-15.4-23.7c-2-3.5-1.3-4.9,2-7.1c13-8.7,18-20.9,17.2-35l0,0c0,0,3-25.9-24.3-32.8c-22.8-5.7-45.1-1-51.9,0.7
	c0,0-0.1-0.1-0.2-0.1c-0.2,0.1-0.4,0.1-0.6,0.2c-0.5,0.1-0.9,0.3-1.3,0.5l0,0l0,0C85.4,7,84.6,8,84.6,10.1
	c0.1,39.1,0.1,78.1,0,117.2c0,2.7,0.8,3.8,3.6,3.7c6-0.2,12.1-0.2,18.1,0c3.7,0.2,5.1-0.8,5-4.8c-0.3-12.7,0-25.4-0.2-38.1
	c0-3.3,0.9-4.5,4.3-4.6c3-0.1,3.8,1.5,4.8,3.7c5.3,11.7,10.9,23.3,19.6,33.1c4.7,5.3,10.5,8.7,17.6,9.5c12,1.3,24-0.5,36.1,0.1
	c2.5,0.1,2.3-1.8,2.3-3.4c-0.2-20.7,0.5-41.3-0.4-62c-0.2-5,0-10,0-16c1,1.9,1.6,2.9,2.1,3.9c12,24.3,24.2,48.7,36,73.1
	c1.7,3.5,3.6,4.7,7.4,4.5c6.5-0.3,13-0.2,19.5,0c3,0.1,3.9-0.9,3.9-3.9C264.2,115.8,264.3,105.4,264.3,94.9z M134,55.4
	c-5.5,6.9-12.9,7.4-20.7,6.8c-2.2-0.2-1.9-1.8-1.9-3.2c0-5.2,0-10.4,0-15.6c0-4.7,0.3-9.5-0.1-14.1c-0.3-3.8,1.5-5,4.8-4.7
	c3.6,0.3,7.2,0.3,10.6,1.1C138.9,28.5,142.6,44.5,134,55.4z"/>
</svg>
