<?xml version="1.0" encoding="utf-8"?>
<!-- Generator: Adobe Illustrator 19.0.0, SVG Export Plug-In . SVG Version: 6.00 Build 0)  -->
<svg version="1.1" id="Camada_1" xmlns="http://www.w3.org/2000/svg" xmlns:xlink="http://www.w3.org/1999/xlink" x="0px" y="0px"
	 viewBox="0 0 500 3500" style="enable-background:new 0 0 500 3500;" xml:space="preserve">
<style type="text/css">
	.st0{fill:#3B41EF;}
	.st1{fill:#FFFFFF;}
	.st2{fill:#19075A;}
	.st3{fill:#FF0104;}
	.st4{fill:#363034;}
	.st5{fill:#00B700;}
	.st6{fill:#293D50;}
	.st7{fill:#C0CCDA;}
	.st8{fill:#FFE380;}
	.st9{fill:#7E98B4;}
	.st10{fill:#FFCF0B;}
	.st11{fill:#486685;}
	.st12{fill:#FFC100;}
	.st13{fill:#F4AE00;}
</style>
<g id="XMLID_6_">
	<circle id="XMLID_4_" class="st0" cx="250" cy="250" r="250"/>
	<g id="XMLID_7_">
		<g id="XMLID_10_">
			<g id="XMLID_11_">
				<g id="XMLID_12_">
					<path id="XMLID_3_" class="st1" d="M329.7,368l-37.1-40.8c-7.4-8.1-20.2-8.5-28.6-0.8l-20.5,18.7c-1.2-0.7-2.4-1.5-3.8-2.3
						c-12.1-7.5-28.6-17.7-45.6-36.4c-17-18.7-25.6-36.2-31.9-48.9c-0.7-1.4-1.3-2.6-1.9-3.9l13.8-12.5l6.8-6.2
						c8.4-7.7,9.3-20.5,1.9-28.6l-37.1-40.8c-7.4-8.1-20.2-8.5-28.6-0.8l-11.5,10.5l0.3,0.3c-3.9,4.5-7.2,9.8-9.8,15.5
						c-2.4,5.5-3.9,10.7-4.8,16c-7.2,42.4,10.5,82.2,60.8,137.6c69.6,76.5,128.7,73.8,131.3,73.6c5.6-0.4,10.9-1.5,16.4-3.3
						c5.9-2,11.5-4.8,16.3-8.3l0.2,0.2l11.6-10.4C336.3,389,337.1,376.2,329.7,368z"/>
				</g>
			</g>
		</g>
		<path id="XMLID_2_" class="st1" d="M410.3,289.2h-29.8c0-87.4-61.8-160.7-144-178.4l6.3-29.2c12.9,2.8,25.6,6.8,37.9,12
			c25.3,10.7,48,26,67.5,45.5c19.5,19.5,34.8,42.2,45.5,67.5C404.7,232.7,410.3,260.5,410.3,289.2z"/>
		<path id="XMLID_1_" class="st1" d="M351.4,289.2h-29.8c0-59-41.9-108.4-97.7-120.3l6.3-29.1c9.4,2,18.6,4.9,27.5,8.6
			c18.3,7.7,34.7,18.7,48.8,32.7s25.1,30.4,32.9,48.6C347.4,248.5,351.4,268.5,351.4,289.2z"/>
	</g>
</g>
<g id="XMLID_18_">
	<g id="XMLID_19_">
		<circle id="XMLID_9_" class="st2" cx="250" cy="860.7" r="250"/>
	</g>
	<g id="XMLID_14_">
		<g id="XMLID_15_">
			<g id="XMLID_16_">
				<path id="XMLID_8_" class="st1" d="M404.6,873.3c-3.6,3.6-8.3,5.4-13,5.4s-9.4-1.8-13-5.4L257.4,752c-3.9-3.9-10.9-3.9-14.9,0
					L121.3,873.3c-7.2,7.2-18.8,7.2-25.9,0c-7.2-7.2-7.2-18.8,0-25.9l121.3-121.3c17.8-17.8,48.9-17.9,66.7,0l21.6,21.6v0l76.6,76.5
					l23.1,23.1C411.8,854.5,411.8,866.1,404.6,873.3z"/>
				<path id="XMLID_5_" class="st1" d="M256.4,786.8c-3.5-3.5-9.2-3.5-12.7,0L137,893.4c-1.7,1.7-2.6,4-2.6,6.4v77.8
					c0,18.3,14.8,33,33.1,33h52.8v-81.8h59.6v81.8h52.8c18.3,0,33-14.8,33-33v-77.8c0-2.4-1-4.7-2.6-6.4L256.4,786.8z"/>
			</g>
		</g>
	</g>
</g>
<g id="XMLID_20_">
	<g id="XMLID_21_">
		<circle id="XMLID_17_" class="st3" cx="250" cy="1460.7" r="250"/>
	</g>
	<path id="XMLID_13_" class="st1" d="M101.2,1380.4c0,0,8-51.8,78.3-73.5c2.5,41.8,2.5,41.8,2.5,41.8l76,72.8l64.9,5.2
		c0,0-1.5,25.7-29.1,55.5c75.8,104,75.8,104,75.8,104l-97.6-84c0,0-17.7,13.8-57.4,30.3l-5.8-68l-70-78.3L101.2,1380.4z"/>
</g>
<g id="XMLID_26_">
	<g id="XMLID_32_">
		<circle id="XMLID_25_" class="st4" cx="250" cy="2060.7" r="250"/>
	</g>
	<g id="XMLID_27_">
		<path id="XMLID_29_" class="st1" d="M326.9,1947.1c-5.6-9.4-14.8-15.2-24.5-16.4l-10-16.8c-9.3-15.6-28.6-21.3-43.3-12.6
			L102.6,1988c-14.7,8.7-19,28.4-9.8,44l23.5,39.7l56.8,96l23.5,39.7c9.3,15.6,28.6,21.3,43.3,12.6l157.6-93.2
			c14.6-8.7,19-28.4,9.8-44l-25-42.3l-31.9,18.9c-10.6,6.3-24.7,2.2-31.5-9.2c-6.7-11.4-3.5-25.7,7.1-32l31.9-18.9L326.9,1947.1z
			 M280.9,1936.1l-162.9,96.4l-6.8-11.4c-2.8-4.8-1.5-10.9,3-13.5l146.6-86.7c4.5-2.7,10.5-0.9,13.3,3.9L280.9,1936.1z"/>
		
			<ellipse id="XMLID_22_" transform="matrix(-0.8607 0.5091 -0.5091 -0.8607 1666.9773 3621.6348)" class="st1" cx="338" cy="2038.9" rx="14.2" ry="15.2"/>
	</g>
</g>
<g id="XMLID_35_">
	<g id="XMLID_40_">
		<circle id="XMLID_33_" class="st5" cx="250" cy="2658.5" r="247.8"/>
	</g>
	<g id="XMLID_36_">
		<polygon id="XMLID_31_" class="st1" points="62.3,2546.5 126.9,2546.5 145.5,2578.8 438.3,2578.8 363.3,2695.2 205.7,2695.2 
			205.7,2709.3 348.4,2709.3 348.4,2733.1 188.6,2733.1 104.6,2581.5 62.3,2581.5 		"/>
		<circle id="XMLID_30_" class="st1" cx="232.5" cy="2783.6" r="31.2"/>
		<circle id="XMLID_28_" class="st1" cx="311.8" cy="2783.6" r="31.2"/>
	</g>
</g>
<g id="XMLID_37_">
	<circle id="XMLID_58_" class="st1" cx="250" cy="3250" r="250"/>
	<g id="XMLID_38_">
		<polygon id="XMLID_56_" class="st6" points="340.2,3189 340.2,3311.3 430.6,3311.3 		"/>
		<rect id="XMLID_55_" x="68.9" y="3331.3" class="st6" width="362.2" height="57.7"/>
		<polygon id="XMLID_54_" class="st7" points="250,3066.8 250,3189 340.4,3189 		"/>
		<polygon id="XMLID_53_" class="st8" points="250,3066.8 250,3189 159.6,3189 		"/>
		<polygon id="XMLID_52_" class="st9" points="250,3311.3 250,3189 340.4,3189 		"/>
		<polygon id="XMLID_51_" class="st10" points="250,3311.3 250,3189 159.6,3189 		"/>
		<polygon id="XMLID_50_" class="st11" points="340.4,3189 340.4,3311.3 250,3311.3 		"/>
		<polygon id="XMLID_49_" class="st12" points="159.6,3189 159.6,3311.3 250,3311.3 		"/>
		<polygon id="XMLID_48_" class="st13" points="159.6,3189 159.6,3311.3 69.2,3311.3 		"/>
	</g>
</g>
</svg>
