<?xml version="1.0" encoding="utf-8"?>
<!-- Generator: Adobe Illustrator 19.0.0, SVG Export Plug-In . SVG Version: 6.00 Build 0)  -->
<svg version="1.1" id="Camada_1" xmlns="http://www.w3.org/2000/svg" xmlns:xlink="http://www.w3.org/1999/xlink" x="0px" y="0px"
	 viewBox="0 0 500 283" style="enable-background:new 0 0 500 283;" xml:space="preserve">
<style type="text/css">
	.st0{fill:#FBDF1D;}
	.st1{fill:#009200;}
	.st2{fill:#0461B3;}
</style>
<g id="XMLID_1_">
	<path id="XMLID_146_" class="st0" d="M367.2,211c-1.3,0.1-2.2,1.1-3.2,1.8c-3.2,1.9-6.6,3.6-10.1,4.7c-1.8,0.6-3.6,0.9-5.5,1.2
		c-2.6,0.5-5.3,0.3-7.9,0.4c-3.2,0.1-6.2-0.9-9.3-1.7c-3.2-0.9-6.3-2.3-9-4.1c-3-2-5.7-4.4-8.3-7c-4.9-5-8.7-10.8-12-17
		c-1.9-3.6-3.7-7.2-4.9-11c-0.2-0.5-0.8-0.8-0.7-1.4c0-0.1,0-0.3,0.2-0.4c0.2,0,0.3,0.1,0.3,0.2c0.6,1.5,1.6,2.8,2.4,4.1
		c2.3,3.7,5.3,6.9,8.4,9.8c2.5,2.4,5.5,4.5,8.6,6.2c2,1,4,2,6.1,2.8c4.2,1.6,8.4,2.3,12.9,2.3c5.5-0.1,10.6-1.4,15.3-4
		c1.8-1,3.5-2,5-3.4c0.1-0.1,0.2-0.2,0.2-0.4c0.4-0.1,0.7-0.3,1-0.6c2.3-2,4.3-4.3,6.1-6.8c0.8-1.1,1.9-2.1,2.3-3.5
		c0.1,0.1,0.2,0.4,0.4,0.1c1.5-2.4,3-4.9,4.3-7.5c1.8-3.6,3.2-7.3,4.3-11.2c1-3.4,1.6-6.8,2.1-10.2c0.6-4.2,0.7-8.4,0.5-12.7
		c-0.2-3.6-0.6-7.1-1.2-10.7c-0.5-2.9-1.1-5.7-1.7-8.6c-0.6-3.2-1.7-6.3-2.8-9.4c-1.6-4.4-3.1-8.9-5.2-13.1c1.8-3,4-5.7,6.4-8.2
		c0.9-0.9,1.6-1.9,2.8-2.4c1,1.6,1.9,3.3,2.9,4.9c1.4,2.4,2.8,4.8,4,7.4c1.6,3.3,3.1,6.5,4.6,9.9s2.7,6.9,4,10.3
		c0.6,1.8,1.2,3.7,1.6,5.6c0.5,2.3,1.2,4.6,1.7,7c0.2,0.9,0.3,1.8,0.4,2.6c0.2,1.5,0.6,2.9,0.6,4.3c0,2.9,0.6,5.7,0.5,8.6
		c-0.3,4.3-0.6,8.6-1.2,12.8c-0.4,2.7-0.9,5.4-1.6,8.1c-0.6,2.1-1.2,4.3-1.9,6.4c-0.7,2-1.5,4-2.3,6c-1.4,3.2-3,6.3-4.8,9.2
		c-2.3,3.8-4.9,7.4-8,10.6c-0.1,0.1-0.1,0.3-0.1,0.4c-0.3,0-0.5,0.3-0.6,0.4c-1.8,2-3.9,3.8-5.9,5.5
		C368.3,209.9,367.5,210.2,367.2,211z"/>
	<path id="XMLID_145_" class="st1" d="M375.3,89.4c-1.2,0.5-2,1.5-2.8,2.4c-2.4,2.5-4.7,5.2-6.4,8.2c-3.9,5.7-6.8,11.8-8.7,18.4
		c-3.2,10.8-3.4,21.7-1.7,32.7c1.7,11.1,5.2,21.8,9.7,32.1c-0.3,1.4-1.4,2.4-2.3,3.5c-1.8,2.5-3.8,4.8-6.1,6.8
		c-0.3,0.3-0.6,0.5-1,0.6c-0.8-2-2.1-3.7-3.1-5.6c-6-10.6-10.9-21.7-14-33.5c-3-11.3-3.6-22.8-1.7-34.4c1.8-10.7,5.3-20.8,11-30.1
		c2.3-3.7,5-7.1,7.8-10.4c1.5-1.1,2.6-2.6,4-3.8c1.5-1.3,3.1-2.4,4.4-3.8c3-1.9,5.9-3.8,9.2-5.2c14.7-6,28.2-3.7,40.3,6.4
		c6.8,5.7,11.7,12.9,15.7,20.7c1.3,2.6,2.7,5.2,3.6,8c0.4,1.3,1.3,2.5,1.7,4.1c-1-1.4-1.9-2.7-2.8-4c-6.2-9.1-14.1-16.2-24.8-19.6
		c-11.3-3.6-21.8-1.8-31.2,5.3C375.8,88.9,375.5,89.1,375.3,89.4z"/>
	<path id="XMLID_141_" class="st2" d="M102.8,86.1c2.4,0.8,4.4,1.7,6.3,3c3.3,2.3,5.4,5.3,6.3,9.2c1,4.8,0.8,9.5-1,14.1
		c-2.4,6.1-7.1,9.5-13.3,11.2c-3.1,0.9-6.3,1.1-9.6,1.1c-7,0-14.1,0-21.1,0c-1,0-1.2-0.3-1.2-1.2c0-23.4,0-46.8,0-70.2
		c0-0.7,0.1-1.1,1-1.1c7,0.1,14,0,21,0.1c4.4,0.1,8.7,0.8,12.6,2.8c6.1,3,9.3,7.9,9.5,14.7c0.1,6.7-2.8,11.7-8.4,15.2
		C104.1,85.3,103.6,85.6,102.8,86.1z M80.1,102.1c0,3.8-0.1,7.5,0.2,11.3c0.3,4.3,2.2,6.3,6.4,6.8c3.2,0.4,6.3-0.3,9.3-1.2
		c4.3-1.4,7.1-4.2,8.3-8.6c0.5-1.9,0.8-3.8,0.9-5.7c0.2-5.9-1.9-10.7-7.6-13.1c-5.1-2.1-10.4-2.3-15.8-2.1c-1.3,0.1-1.6,0.5-1.6,1.9
		C80.1,94.9,80.1,98.5,80.1,102.1z M80.1,72.8c0,3.1,0,6.2,0,9.3c0,1.6,0.3,2,2,2c3.5,0.1,6.9,0,10.3-0.8c3.9-0.8,7.4-2.3,9.2-6.1
		c1.4-2.8,1.5-5.9,1.1-9c-0.6-5.1-3.1-7.9-8-9.1c-3-0.7-6-1-9.1-0.8c-4.1,0.2-5,1.1-5.3,5.3C80.1,66.7,80.1,69.8,80.1,72.8z"/>
	<path id="XMLID_138_" class="st2" d="M199.7,115c-1.1,1.7-2,3.2-3.1,4.5c-2.5,3.1-5.6,4.9-9.7,5c-4.8,0.1-9.5-0.3-14-2.4
		c-5-2.4-8.1-6.4-9.7-11.6c-2.3-7.4-2.2-14.7,0.8-21.9c2.6-6.3,7.5-10,14-11.4c5.9-1.3,11.9-1.2,17.8,0.5
		c8.2,2.4,12.8,8.1,14.4,16.4c0.5,2.5,0.7,5,0.7,7.5c0,7.3,0,14.7,0,22c0,0.8-0.2,1.1-1,1c-3.1,0-6.1-0.1-9.2,0c-0.9,0-1-0.4-1-1.1
		C199.7,120.8,199.7,118,199.7,115z M172.7,101.1c0,2.5,0.1,5.7,0.9,8.9c1.2,4.4,3.6,7.5,8.2,8.6c1.8,0.4,3.5,0.4,5.3,0.4
		c4.1-0.1,7-2.1,9.2-5.4c2-3.1,2.9-6.5,3.2-10.1c0.4-4.7,0.5-9.3-1.2-13.8c-1.4-3.9-4.2-6.4-8.3-7.1c-2.1-0.4-4.2-0.5-6.3-0.2
		c-5.7,0.7-8.9,3.5-10.3,9C172.8,94.2,172.7,97.3,172.7,101.1z"/>
	<path id="XMLID_137_" class="st2" d="M80.4,177.8c0.1,4-0.2,9.1,0.2,14.3c0.2,2.5,0.6,4.9,1.7,7.1c1.3,2.8,3.5,4.6,6.5,5.2
		c2.7,0.6,5.5,0.5,8.2,0c4.6-0.9,7.1-4,8.3-8.3c0.6-2.2,0.9-4.5,0.9-6.8c0-8.7,0-17.3,0-26c0-1,0.2-1.3,1.3-1.3c3,0.1,5.9,0,8.9,0
		c0.7,0,1,0.1,1,0.9c-0.1,8.3,0.2,16.6-0.2,24.9c-0.3,6.5-2.4,12.4-7.3,17c-3,2.8-6.7,4.4-10.7,5c-5.1,0.8-10.2,0.8-15.2-0.7
		c-7.4-2.2-11.8-7.2-13.6-14.7c-0.8-3.2-1-6.4-1-9.7c0-7.2,0-14.4,0-21.6c0-1,0.3-1.3,1.3-1.3c2.9,0.1,5.8,0.1,8.7,0
		c0.9,0,1.1,0.2,1.1,1.1C80.4,167.6,80.4,172.1,80.4,177.8z"/>
	<path id="XMLID_134_" class="st2" d="M230,210.4c-4.4,0-8.4-0.5-12.2-2.2c-5.9-2.6-9.7-7.1-11.7-13.1c-2-6.2-2-12.4,0.3-18.6
		c2.6-6.8,7.4-11.1,14.3-13.1c5.7-1.7,11.5-1.8,17.1-0.1c7.3,2.1,12,7,14.4,14.1c2.3,6.8,2,13.6-0.7,20.1c-3.1,7.4-9,11.2-16.7,12.5
		C233.2,210.3,231.4,210.3,230,210.4z M242.8,187.3c0-3.5,0-7.1-0.9-10.5c-1.2-4.6-3.9-7.8-8.8-8.6c-2.1-0.4-4.2-0.4-6.3-0.2
		c-5.7,0.7-9,3.7-10.3,9.3c-1.1,4.9-0.9,9.8-0.6,14.7c0.1,1.9,0.5,3.7,1.2,5.4c1.4,3.6,3.9,6,7.7,6.9c2.6,0.6,5.2,0.6,7.9,0.2
		c4.4-0.6,7.2-3.2,8.7-7.3C242.6,194,242.8,190.6,242.8,187.3z"/>
	<path id="XMLID_133_" class="st2" d="M136.8,195.2c0,4.7,0,9.3,0,14c0,0.9-0.2,1.1-1.1,1.1c-3-0.1-6.1,0-9.1,0
		c-0.7,0-0.9-0.1-0.9-0.9c0.1-7.9,0-15.9,0.1-23.8c0.1-4.8,1.3-9.3,3.8-13.4c2.8-4.4,6.7-7.3,11.7-8.7c6.1-1.6,12.2-1.6,18.3,0.2
		c7.1,2.2,11.3,7.1,13,14.2c0.9,3.5,1.1,7,1.1,10.6c0,6.8,0,13.7,0,20.5c0,0.8-0.2,1.1-1,1.1c-3.1,0-6.1,0-9.2,0
		c-0.8,0-0.9-0.3-0.9-1c0-8.5,0-17.1,0-25.6c0-3.2-0.3-6.4-1.6-9.4c-1.5-3.7-4.3-5.6-8.2-6c-2.1-0.2-4.1-0.2-6.2,0.1
		c-5.1,0.8-7.8,4.1-9.1,8.8c-0.7,2.7-0.8,5.5-0.9,8.3C136.8,188.8,136.8,192,136.8,195.2z"/>
	<path id="XMLID_132_" class="st2" d="M50,174.2c0-11.7,0-23.3,0-35c0-1,0.2-1.4,1.3-1.4c2.9,0.1,5.8,0.1,8.7,0c0.8,0,1.1,0.1,1.1,1
		c0,22.3,0,44.5-0.1,66.8c0,7-2.4,13.2-7.9,17.8c-4,3.4-8.8,5.1-14,5.8c-2.5,0.3-5.1,0.3-7.7,0.3c-0.8,0-1.3-0.2-1.2-1.2
		c0.1-1.3,0.1-2.6,0-3.8c0-0.8,0.1-1.1,1-0.9c4,0.7,7.9,0.2,11.5-1.9c4.5-2.6,6.6-6.8,7.1-11.8c0.1-1.3,0.2-2.7,0.2-4.1
		C50,195.4,50,184.8,50,174.2L50,174.2z"/>
	<path id="XMLID_131_" class="st2" d="M294.2,80.5c0.1,6.8-0.3,15.2,0.2,23.6c0.3,5.7,2.8,10.3,8,13c1.9,1,3.9,1.4,6,1.6
		c0.8,0,1,0.3,1,1.1c-0.1,1.3,0,2.6,0,4c0,0.5-0.2,0.8-0.7,0.8c-6.7-0.3-13.1-1.9-18.2-6.6c-4.2-3.9-6.4-8.8-7.1-14.4
		c-0.2-1.7-0.3-3.3-0.3-5c0-15,0-30,0-45c0-1.1,0.3-1.4,1.4-1.3c2.8,0.1,5.6,0.1,8.4,0c1.2,0,1.4,0.4,1.4,1.4
		C294.2,61.9,294.2,70.4,294.2,80.5z"/>
	<path id="XMLID_130_" class="st2" d="M217.9,116.5c2.2,1.4,4.2,2.6,6.5,3.1c4.7,1,9.5,1.3,14.1-0.2c2.2-0.7,3.9-2,4.9-4.2
		c1.4-3,0.4-5.9-2.7-8c-2.5-1.7-5.5-2.6-8.3-3.7c-3.2-1.2-6.4-2.4-9.2-4.4c-6.8-4.7-8-15.9,1.3-20.9c2.4-1.3,4.9-2.1,7.6-2.4
		c6.5-0.6,12.7-0.2,18.4,3.4c0.6,0.4,0.9,0.7,0.9,1.4c0.1,1.3,0.1,2.6,0.1,4c0,0.3,0.2,0.8-0.1,1c-0.4,0.2-0.6-0.2-0.9-0.4
		c-2.7-2-5.7-3.4-8.9-4c-2.9-0.6-5.7-1.1-8.7-0.3c-1.6,0.4-3.1,1-4.4,2.1c-2.5,2.1-2.7,5.3-0.5,7.7c1.4,1.6,3.3,2.6,5.2,3.4
		c3.4,1.5,6.9,2.8,10.3,4.4c3.2,1.5,6.1,3.5,7.8,6.7c3.2,5.8,1,13.2-4.9,16.8c-3.9,2.4-8.2,3.3-12.7,3.3c-4.8-0.1-9.5-0.6-14.2-1.9
		c-0.7-0.2-1.1-0.5-1.2-1.3C218.4,120.3,218.1,118.5,217.9,116.5z"/>
	<path id="XMLID_129_" class="st0" d="M364.4,72.8c-1.3,1.4-3,2.5-4.4,3.8c-1.4,1.2-2.5,2.7-4,3.8c-1.7-3-3.5-6-5.3-9
		c-1.1-1.9-2.3-3.7-3.5-5.5c-1.3-2-2.5-4.2-4-6.1c-1.7-2.2-3-4.6-4.7-6.8c-2.1-2.8-4.1-5.6-6.2-8.3c-2.5-3.2-4.9-6.5-7.6-9.6
		c-2.5-2.9-5-5.9-7.5-8.7c-3.6-4.1-7.2-8.2-10.9-12.1c-1.9-2-3.9-4-5.8-6c-2.5-2.6-5.2-5-7-8.2c0.9,0.7,1.8,1.4,2.6,2.1
		c2.8,2.4,5.5,4.8,8.3,7.3c4.6,4.1,9.2,8.2,13.7,12.3c2.6,2.3,5,4.8,7.6,7.1c4.1,3.7,8,7.6,11.8,11.7c4,4.3,8,8.5,11.7,13
		c3.4,4.1,6.7,8.4,10,12.6C361.1,68.3,362.6,70.6,364.4,72.8z"/>
	<path id="XMLID_128_" class="st1" d="M367.2,211c0.3-0.8,1.1-1.1,1.7-1.6c2.1-1.7,4.1-3.5,5.9-5.5c0.2-0.2,0.3-0.5,0.6-0.4
		c3.6,6.2,7.2,12.3,11.1,18.3c4.6,7.1,9.4,14,14.5,20.6c6.9,9,14.3,17.6,22,25.9c3.1,3.3,6.2,6.6,9.3,9.9c1.4,1.6,3.1,2.9,4.4,4.7
		l0,0c-13.2-11.2-26.2-22.6-38.4-34.8c-6.7-6.6-12.9-13.6-18.8-20.9c-4.1-5-7.9-10.2-11.7-15.5C367.6,211.6,367.4,211.3,367.2,211z"
		/>
	<path id="XMLID_127_" class="st2" d="M134.7,109.9c0,4.5,0,9.1,0,13.6c0,0.9-0.3,1.2-1.2,1.2c-3-0.1-6,0-9,0c-0.6,0-1,0-1-0.8
		c0.1-8.5-0.3-16.9,0.2-25.4c0.6-10.2,7.5-18.3,17.4-20.8c4.7-1.2,9.5-1.4,14.3-1.2c0.6,0,0.9,0.2,0.9,0.9c-0.1,1,0,2.1,0,3.1
		c0,0.8-0.2,1-1,0.9c-2.7-0.3-5.3-0.4-8,0.1c-7.7,1.5-12.4,6.9-12.6,14.8C134.6,100.8,134.7,105.3,134.7,109.9L134.7,109.9z"/>
	<path id="XMLID_126_" class="st2" d="M273.2,195.3c0,4.7,0,9.3,0,14c0,0.9-0.3,1.1-1.1,1.1c-3,0-5.9,0-8.9,0
		c-0.8,0-1.2-0.1-1.1-1.1c0-7.7,0-15.4,0.1-23.1c0.1-7.1,2.4-13.2,7.9-18c4.1-3.5,9-5.2,14.2-5.8c3.2-0.4,6.3-0.5,9.5-0.4
		c0.8,0,1.1,0.3,1,1.1c-0.1,1-0.1,2,0,3c0.1,0.8-0.2,0.9-1,0.9c-3.1-0.3-6.3-0.4-9.4,0.5c-6.5,1.8-10.7,6.8-11.1,13.6
		c-0.2,2.4-0.1,4.7-0.1,7.1C273.2,190.6,273.2,193,273.2,195.3L273.2,195.3z"/>
	<path id="XMLID_125_" class="st2" d="M194.9,186.1c0,7.7,0,15.4,0,23.1c0,0.9-0.3,1.2-1.2,1.2c-3,0-5.9,0-8.9,0
		c-0.8,0-1.1-0.2-1.1-1.1c0-15.5,0-31,0-46.5c0-0.8,0.2-1,1-1c3,0,6.1,0.1,9.1,0c0.9,0,1.1,0.3,1.1,1.1
		C194.9,170.6,194.9,178.3,194.9,186.1L194.9,186.1z"/>
	<path id="XMLID_124_" class="st2" d="M261.9,100.3c0-7.7,0-15.4,0-23.1c0-1,0.2-1.2,1.2-1.2c2.9,0.1,5.9,0,8.9,0c0.8,0,1,0.2,1,1
		c0,15.5,0,31.1,0,46.6c0,0.7-0.3,0.9-0.9,0.9c-3.1,0-6.1-0.1-9.2,0c-0.9,0-1-0.3-1-1.1C261.9,115.7,261.9,108,261.9,100.3z"/>
	<path id="XMLID_123_" class="st2" d="M188.9,152.5c-3.9,0-7-3.3-6.9-7.3c0-4.1,3.2-7.2,7.3-7.2c3.9,0,7.2,3.4,7.1,7.4
		C196.3,149.1,192.7,152.5,188.9,152.5z"/>
	<path id="XMLID_122_" class="st2" d="M274.4,59.4c0.1,3.7-3.4,7.3-7,7.4c-4.1,0.1-7.3-3.1-7.4-7.1c0-4.1,3-7.3,7.1-7.4
		C271.1,52.2,274.3,55.4,274.4,59.4z"/>
	<path id="XMLID_121_" class="st2" d="M86.9,154.7c-0.5,0.1-0.5-0.2-0.7-0.4c-1.5-2.2-1.5-2.4,0.7-3.9c5.5-3.9,10.9-7.8,16.4-11.7
		c0.5-0.4,0.8-0.5,1.3,0.2c1.4,2.3,2.8,4.5,4.2,6.7c0.5,0.8,0.5,1.3-0.6,1.7c-6.3,2.3-12.6,4.4-18.9,6.6
		C88.4,154.2,87.6,154.5,86.9,154.7z"/>
	<path id="XMLID_120_" class="st2" d="M368.6,243.1c-0.1-0.1-0.1-0.1-0.2-0.2l0,0C368.4,243,368.5,243,368.6,243.1L368.6,243.1z"/>
	<path id="XMLID_119_" class="st2" d="M368.6,243.1L368.6,243.1L368.6,243.1z"/>
</g>
</svg>
