<?xml version="1.0" encoding="utf-8"?>
<!-- Generator: Adobe Illustrator 19.0.0, SVG Export Plug-In . SVG Version: 6.00 Build 0)  -->
<svg version="1.1" id="Camada_1" xmlns="http://www.w3.org/2000/svg" xmlns:xlink="http://www.w3.org/1999/xlink" x="0px" y="0px"
	 viewBox="0 0 48 212" style="enable-background:new 0 0 48 212;" xml:space="preserve">
<style type="text/css">
	.st0{clip-path:url(#XMLID_21_);}
	.st1{clip-path:url(#XMLID_38_);}
	.st2{opacity:0.6;clip-path:url(#XMLID_39_);}
	.st3{clip-path:url(#XMLID_40_);fill:#181818;}
	.st4{clip-path:url(#XMLID_41_);fill:#181818;}
	.st5{clip-path:url(#XMLID_42_);fill:#181818;}
	.st6{opacity:0.6;}
	.st7{opacity:0.6;fill:#181818;}
	.st8{opacity:0.3;}
</style>
<g id="XMLID_1_">
	<g>
		<defs>
			<rect id="XMLID_26_" x="0" y="0" width="48" height="48"/>
		</defs>
		<clipPath id="XMLID_21_">
			<use xlink:href="#XMLID_26_"  style="overflow:visible;"/>
		</clipPath>
		<g class="st0">
			<defs>
				<rect id="XMLID_27_" x="0" y="0" width="48" height="48"/>
			</defs>
			<clipPath id="XMLID_38_">
				<use xlink:href="#XMLID_27_"  style="overflow:visible;"/>
			</clipPath>
			<g class="st1">
				<defs>
					<rect id="XMLID_28_" x="0" y="0" width="48" height="48"/>
				</defs>
				<clipPath id="XMLID_39_">
					<use xlink:href="#XMLID_28_"  style="overflow:visible;"/>
				</clipPath>
				<g class="st2">
					<g>
						<defs>
							<rect id="XMLID_33_" x="0.3" y="0.3" width="47.4" height="47.4"/>
						</defs>
						<clipPath id="XMLID_40_">
							<use xlink:href="#XMLID_33_"  style="overflow:visible;"/>
						</clipPath>
						<path class="st3" d="M24,0.3C10.9,0.3,0.3,10.9,0.3,24S10.9,47.7,24,47.7S47.7,37.1,47.7,24S37.1,0.3,24,0.3 M9.8,16.4
							c0-2.1,0.9-3.9,2.4-5.2v5.1h1v-5.9c0.3-0.2,0.7-0.4,1-0.5v6.4h1V9.7c0.3-0.1,0.7-0.1,1-0.1v6.8h1V9.5h13.8
							c3.8,0,6.9,3.1,6.9,6.9v2h-9.6c-1.2-1-2.8-1.6-4.5-1.6c-1.7,0-3.3,0.6-4.5,1.6H9.8V16.4z M29.5,24c0,3.1-2.5,5.6-5.6,5.6
							c-3.1,0-5.6-2.5-5.6-5.6c0-1.6,0.7-3.1,1.8-4.2c1-0.9,2.3-1.5,3.8-1.5c1.5,0,2.8,0.6,3.8,1.5C28.8,20.9,29.5,22.4,29.5,24
							 M38,31.6c0,3.8-3.1,6.9-6.9,6.9H16.7c-3.8,0-6.9-3.1-6.9-6.9V19.8H18c-0.8,1.2-1.3,2.6-1.3,4.2c0,4,3.2,7.2,7.2,7.2
							c4,0,7.2-3.2,7.2-7.2c0-1.6-0.5-3-1.3-4.2H38V31.6z"/>
					</g>
				</g>
				<g class="st2">
					<g>
						<defs>
							<rect id="XMLID_31_" x="30.4" y="11.6" width="4.9" height="4.9"/>
						</defs>
						<clipPath id="XMLID_41_">
							<use xlink:href="#XMLID_31_"  style="overflow:visible;"/>
						</clipPath>
						<path id="XMLID_32_" class="st4" d="M34.2,11.6h-2.6c-0.6,0-1.2,0.5-1.2,1.2v2.6c0,0.6,0.5,1.2,1.2,1.2h2.6
							c0.6,0,1.2-0.5,1.2-1.2v-2.6C35.4,12.1,34.8,11.6,34.2,11.6"/>
					</g>
				</g>
				<g class="st2">
					<g>
						<defs>
							<rect id="XMLID_29_" x="20.2" y="20.2" width="7.6" height="7.6"/>
						</defs>
						<clipPath id="XMLID_42_">
							<use xlink:href="#XMLID_29_"  style="overflow:visible;"/>
						</clipPath>
						<path id="XMLID_30_" class="st5" d="M27.8,24c0-2.1-1.7-3.8-3.8-3.8s-3.8,1.7-3.8,3.8s1.7,3.8,3.8,3.8S27.8,26.1,27.8,24"/>
					</g>
				</g>
			</g>
		</g>
	</g>
</g>
<g id="XMLID_3_" class="st6">
	<g id="XMLID_6_">
		<path id="XMLID_7_" d="M24,54C10.9,54,0.2,64.7,0.2,77.8c0,13.1,10.7,23.8,23.8,23.8c13.1,0,23.8-10.7,23.8-23.8
			C47.8,64.7,37.1,54,24,54z M29.9,78.7H26c0,6.2,0,13.8,0,13.8h-5.7c0,0,0-7.6,0-13.8h-2.7v-4.9h2.7v-3.2c0-2.3,1.1-5.8,5.8-5.8
			l4.3,0v4.7c0,0-2.6,0-3.1,0c-0.5,0-1.2,0.3-1.2,1.3v2.9h4.4L29.9,78.7z"/>
	</g>
</g>
<polygon id="XMLID_22_" class="st7" points="20,125.9 30.5,131.9 20,137.9 "/>
<path id="XMLID_25_" class="st7" d="M24,108.2c-13.2,0-23.8,10.7-23.8,23.8c0,13.2,10.7,23.8,23.8,23.8s23.8-10.7,23.8-23.8
	C47.8,118.8,37.2,108.2,24,108.2z M40.5,138c-0.2,2.2-1.9,5.1-4.3,5.5c-7.6,0.6-16.6,0.5-24.4,0c-2.5-0.3-4.1-3.3-4.3-5.5
	c-0.4-4.7-0.4-7.4,0-12c0.2-2.2,1.8-5.2,4.3-5.4c7.8-0.6,16.8-0.5,24.4,0c2.7,0.1,4.1,2.9,4.3,5.2C40.8,130.4,40.8,133.3,40.5,138z"
	/>
<g id="XMLID_19_" class="st8">
	<path id="XMLID_17_" d="M29.2,183.1c0-0.1,0-0.2,0-0.2v-0.2H29c-0.1,0-0.1,0-0.2,0c-1.6,0-3.2,0-4.8,0c-1.6,0-3.1,0-4.7,0
		c-0.1,0-0.2,0-0.3,0h-0.2v0.2c0,0.1,0,0.1,0,0.2c0,3.1,0,6.3,0,9.4c0,0.1,0,0.2,0,0.3v0.2H19c0.1,0,0.1,0,0.3,0c3.1,0,6.3,0,9.4,0
		c0.1,0,0.2,0,0.2,0h0.2v-0.2c0-0.1,0-0.1,0-0.2C29.2,189.4,29.2,186.2,29.2,183.1z"/>
	<path id="XMLID_16_" d="M18.8,179v0.2h3.5h3.5h3.5V179c0-0.1,0-0.1,0-0.2c0-3.2,0-6.4,0-9.6c0-0.1,0-0.2,0-0.2v-0.2h-3.5h-3.5h-3.5
		v0.2c0,0.1,0,0.1,0,0.2c0,3.2,0,6.4,0,9.6C18.8,178.9,18.8,179,18.8,179z"/>
	<path id="XMLID_15_" d="M15,182.6c-3.2,0-6.4,0-9.6,0c-0.1,0-0.2,0-0.2,0H5v3.5v3.5v3.5h0.2c0.1,0,0.1,0,0.2,0c3.2,0,6.4,0,9.5,0
		c0.1,0,0.2,0,0.2,0h0.2v-3.5v-3.5v-3.5h-0.2C15.1,182.6,15.1,182.6,15,182.6z"/>
	<path id="XMLID_14_" d="M42.6,182.6c-3.2,0-6.4,0-9.6,0c-0.1,0-0.2,0-0.2,0h-0.2v3.5v3.5v3.5h0.2c0.1,0,0.1,0,0.2,0
		c3.2,0,6.4,0,9.6,0c0.1,0,0.2,0,0.2,0H43v-3.5v-3.5v-3.5h-0.2C42.8,182.6,42.7,182.6,42.6,182.6z"/>
	<path id="XMLID_13_" d="M29.2,196.9c0-0.1,0-0.2,0-0.2v-0.2h-3.5h-3.5h-3.5v0.2c0,0.1,0,0.1,0,0.2c0,3.2,0,6.4,0,9.6
		c0,0.1,0,0.2,0,0.2v0.2h3.5h3.5h3.5v-0.2c0-0.1,0-0.1,0-0.2C29.2,203.2,29.2,200,29.2,196.9z"/>
	<path id="XMLID_12_" d="M42.6,196.5c-0.1,0-0.1,0-0.2,0h-2.8h-3.5h-2.7c-0.1,0-0.2,0-0.3,0c0,0,0,0-0.1,0h-0.4v3.5v3.5v3.5h0.4
		c0,0,0,0,0,0c0,0,0,0,0,0h3h3.5H43v-3.5v-3.5v-3.5L42.6,196.5C42.6,196.5,42.6,196.5,42.6,196.5z"/>
	<polygon id="XMLID_11_" points="8.5,168.8 5,168.8 5,172.3 5,175.7 5,179.2 8.5,179.2 11.9,179.2 15.4,179.2 15.4,175.7 
		15.4,172.3 15.4,168.8 11.9,168.8 	"/>
	<polygon id="XMLID_10_" points="39.5,168.8 36.1,168.8 32.6,168.8 32.6,172.3 32.6,175.7 32.6,179.2 36.1,179.2 39.5,179.2 
		43,179.2 43,175.7 43,172.3 43,168.8 	"/>
	<path id="XMLID_2_" d="M8.5,196.5H5v0.4c0,0,0,0,0,0.1c0,0.1,0,0.2,0,0.3v2.7v3.5v2.7c0,0.1,0,0.2,0,0.3c0,0,0,0,0,0.1v0.4h3.5h3.5
		h3.5v-3.5v-3.5v-3.5h-3.5H8.5z"/>
</g>
</svg>
