<?xml version="1.0" encoding="utf-8"?>
<!-- Generator: Adobe Illustrator 19.0.0, SVG Export Plug-In . SVG Version: 6.00 Build 0)  -->
<svg version="1.1" id="Camada_1" xmlns="http://www.w3.org/2000/svg" xmlns:xlink="http://www.w3.org/1999/xlink" x="0px" y="0px"
	 viewBox="0 0 120 400" style="enable-background:new 0 0 120 400;" xml:space="preserve">
<style type="text/css">
	.st0{fill:#17B9B9;}
	.st1{fill:#3694A3;}
	.st2{fill:#E26B5B;}
	.st3{fill:#FFFFFF;}
	.st4{fill:#E3675D;}
	.st5{fill:#2B979C;}
	.st6{fill:#33969C;}
	.st7{fill:#19202E;}
	.st8{fill:#8CDBD9;}
</style>
<g id="XMLID_2_">
	<circle id="XMLID_13_" class="st0" cx="60" cy="60" r="60"/>
	<path id="XMLID_12_" class="st1" d="M119.5,67.8c-3.2,24.9-21.8,45.1-46,50.6L41.7,86.8L80,36L101,56.6l5.2-1.3L119.5,67.8z"/>
	<circle id="XMLID_11_" class="st2" cx="60" cy="60" r="32.5"/>
	<circle id="XMLID_10_" class="st3" cx="60" cy="60" r="28"/>
	<circle id="XMLID_9_" class="st2" cx="60" cy="60" r="22.5"/>
	<circle id="XMLID_8_" class="st3" cx="60" cy="60" r="18.3"/>
	<circle id="XMLID_7_" class="st2" cx="60" cy="60" r="13.8"/>
	<circle id="XMLID_6_" class="st3" cx="60" cy="60" r="9.3"/>
	<circle id="XMLID_5_" class="st2" cx="60" cy="60" r="4.1"/>
	<path id="XMLID_4_" class="st4" d="M96.6,58.9c0-1.7,2.2-3.4,9.6-3.6c-1.3,3.6-1.3,5.8-0.2,9.3c-7.8,0-9.4-2.3-9.4-3.6V58.9z"/>
	<path id="XMLID_3_" d="M105.3,61.1H59.9c-0.6,0-1.1-0.5-1.1-1.1v0c0-0.6,0.5-1.1,1.1-1.1h45.5L105.3,61.1z"/>
</g>
<g id="XMLID_14_">
	<circle id="XMLID_17_" class="st0" cx="60" cy="200" r="60"/>
	<path id="XMLID_16_" class="st5" d="M118.1,215c-4.5,17.5-16.8,32-32.9,39.4l-44-46.8c10,1.3,14.9,7.7,20.9,12.9
		c6.6-14,9.3-19.3,19.1-31.1c-3.3-9.2-3.8-18.6-3.8-18.6l38.7,42.5L118.1,215z"/>
	<path id="XMLID_15_" class="st3" d="M81.2,189.5c-9.8,11.8-12.6,17.1-19.1,31.1c-6-5.1-10.9-11.6-20.9-12.9
		c3.6-5.7,9.8-9.6,9.8-9.6s5,2.8,7.9,7.4c5.6-19,18.6-34.7,18.6-34.7S77.9,180.3,81.2,189.5z"/>
</g>
<g id="XMLID_18_">
	<circle id="XMLID_27_" class="st0" cx="60" cy="340" r="60"/>
	<path id="XMLID_26_" class="st6" d="M116,360.9l-0.4,1.7c-6.9,16.9-21.2,29.9-39,35l-46-46.2l56.9-18.4L116,360.9z"/>
	<path id="XMLID_25_" class="st7" d="M87.5,333.1L87.5,333.1c0,0-9.2-7.9-12.3-10.8c-3.1-2.9-7.5,0.4-7.5,0.4s-3,3.5-5.1,5.5
		c-0.6,0.6-1.3,0.8-2,0.8c-0.7,0-1.4-0.2-2-0.8c-2.1-2.1-5.1-5.5-5.1-5.5s-4.4-3.2-7.5-0.4c-3.1,2.9-12.3,10.8-12.3,10.8l0,0
		c-3,2.5-4.9,6.3-4.9,10.6c0,7.6,6.2,13.8,13.8,13.8c6,0,11.1-3.9,13-9.3h5.1h5.1c1.9,5.4,7,9.3,13,9.3c7.6,0,13.8-6.2,13.8-13.8
		C92.5,339.4,90.6,335.6,87.5,333.1z"/>
	<circle id="XMLID_24_" class="st8" cx="42.2" cy="343.6" r="8.8"/>
	<circle id="XMLID_23_" class="st8" cx="78.7" cy="343.6" r="8.8"/>
	<circle id="XMLID_22_" class="st0" cx="78.7" cy="343.6" r="7.9"/>
	<circle id="XMLID_21_" class="st0" cx="42.2" cy="343.6" r="7.9"/>
	<circle id="XMLID_20_" class="st8" cx="38.6" cy="341.5" r="3.3"/>
	<circle id="XMLID_19_" class="st8" cx="75.1" cy="341.5" r="3.3"/>
</g>
</svg>
